<svg xmlns="http://www.w3.org/2000/svg" viewBox="0 0 267 36" width="267" height="36">
  <svg x="0" y="2" width="32" height="32" viewBox="623 115 800 800">
    <g fill="none" fill-rule="nonzero" stroke="none">
      <path d="M703,915c-40,0 -80,-40 -80,-80v-640c0,-40 40,-80 80,-80h640c40,0 80,40 80,80v640c0,40 -40,80 -80,80z" fill="#ff5722"/>
      <path d="M1090.7826,515.02623c0.02522,2.21525 0.11209,4.41569 0.25894,6.5997c3.37491,50.19288 38.43623,91.70301 85.34887,104.69532c9.94162,2.7533 20.44981,4.2259 31.26712,4.22901v108.33682h-376.92129l0.03433,-108.33682c10.82034,-0.00311 21.29702,-1.47654 31.24112,-4.23132c49.0382,-13.58491 85.12475,-58.33098 85.60241,-111.58102v-15.97739l0.03728,-207.64761h419.9573l-88.66948,109.72386l-21.05439,-0.00001h-50.1948c-11.61283,0 -22.83011,1.69358 -33.41833,4.8472c-47.30822,14.0904 -82.12481,57.78528 -83.48908,109.34226z" fill="#1a1a1a" stroke="#1a1a1a" stroke-width="30" stroke-linecap="square" stroke-linejoin="round"/>
      <path d="M678.39132,291.11292h195.68256v157.5085c-97.19929,0 -178.13936,-67.80769 -195.68256,-157.5085z" fill="#1a1a1a" stroke="#1a1a1a" stroke-width="30" stroke-linecap="round" stroke-linejoin="round"/>
    </g>
  </svg>
  <path transform="translate(44.00, 28.2) scale(0.013662, -0.013662)" d="M135 0V1490H603L845 806Q860 759 879.0 683.0Q898 607 918.5 519.5Q939 432 956 351Q973 431 993.0 518.5Q1013 606 1032.0 682.0Q1051 758 1066 806L1304 1490H1774V0H1467V703Q1467 759 1469.5 846.0Q1472 933 1474.5 1033.0Q1477 1133 1478 1227Q1453 1127 1425.5 1026.0Q1398 925 1373.0 840.5Q1348 756 1330 703L1083 0H826L575 703Q558 754 533.5 836.0Q509 918 481.0 1016.5Q453 1115 427 1215Q429 1125 431.5 1027.5Q434 930 436.0 844.5Q438 759 438 703V0Z" fill="#faf7f2"/>
  <path transform="translate(70.07, 28.2) scale(0.013662, -0.013662)" d="M786 -20Q587 -20 431.0 70.0Q275 160 184.5 331.0Q94 502 94 744Q94 987 185.0 1158.5Q276 1330 433.0 1420.0Q590 1510 786 1510Q955 1510 1092.0 1447.5Q1229 1385 1317.0 1266.5Q1405 1148 1427 981H1118Q1097 1102 1008.5 1170.5Q920 1239 792 1239Q618 1239 511.0 1110.0Q404 981 404 744Q404 502 511.5 376.5Q619 251 791 251Q918 251 1007.5 319.5Q1097 388 1119 510H1428Q1411 371 1330.0 250.5Q1249 130 1111.5 55.0Q974 -20 786 -20Z" fill="#faf7f2"/>
  <path transform="translate(90.76, 28.2) scale(0.013662, -0.013662)" d="M135 0V1490H716Q886 1490 1005.0 1425.5Q1124 1361 1186.5 1247.5Q1249 1134 1249 987Q1249 839 1185.5 726.5Q1122 614 1001.0 550.5Q880 487 709 487H440V0ZM440 733H660Q800 733 867.0 804.0Q934 875 934 987Q934 1100 867.0 1169.0Q800 1238 659 1238H440Z" fill="#faf7f2"/>
  <path transform="translate(115.52, 28.2) scale(0.013662, -0.013662)" d="M135 0V1490H726Q971 1490 1094.5 1382.0Q1218 1274 1218 1107Q1218 975 1141.5 894.0Q1065 813 950 787V772Q1034 768 1108.5 724.0Q1183 680 1229.5 600.5Q1276 521 1276 411Q1276 293 1218.0 200.0Q1160 107 1046.0 53.5Q932 0 764 0ZM440 251H704Q839 251 900.5 303.0Q962 355 962 440Q962 533 894.5 594.0Q827 655 712 655H440ZM440 864H681Q779 864 844.0 916.0Q909 968 909 1058Q909 1139 851.5 1190.0Q794 1241 687 1241H440Z" fill="#faf7f2"/>
  <path transform="translate(134.03, 28.2) scale(0.013662, -0.013662)" d="M428 1490V0H128V1490Z" fill="#faf7f2"/>
  <path transform="translate(141.61, 28.2) scale(0.013662, -0.013662)" d="M440 -22Q280 -22 174.0 62.5Q68 147 68 313Q68 438 128.0 509.0Q188 580 284.0 613.0Q380 646 490 656Q634 670 697.5 685.5Q761 701 761 756V761Q761 832 715.5 871.0Q670 910 586 910Q499 910 446.0 872.5Q393 835 375 781L100 827Q143 972 271.5 1052.0Q400 1132 587 1132Q707 1132 815.5 1094.0Q924 1056 992.5 972.5Q1061 889 1061 753V0H777V155H767Q726 77 645.0 27.5Q564 -22 440 -22ZM525 189Q630 189 696.5 250.0Q763 311 763 400V521Q745 508 704.5 498.5Q664 489 619.0 481.5Q574 474 541 470Q458 458 407.0 423.0Q356 388 356 321Q356 256 403.5 222.5Q451 189 525 189Z" fill="#faf7f2"/>
  <path transform="translate(157.85, 28.2) scale(0.013662, -0.013662)" d="M628 -22Q459 -22 336.5 50.5Q214 123 147.5 252.5Q81 382 81 554Q81 727 147.5 857.0Q214 987 336.5 1059.5Q459 1132 628 1132Q827 1132 960.0 1032.5Q1093 933 1125 760L846 708Q827 795 772.5 845.5Q718 896 631 896Q511 896 449.0 801.5Q387 707 387 555Q387 405 449.0 309.5Q511 214 631 214Q718 214 774.0 266.5Q830 319 848 409L1127 358Q1095 181 962.0 79.5Q829 -22 628 -22Z" fill="#faf7f2"/>
  <path transform="translate(174.32, 28.2) scale(0.013662, -0.013662)" d="M128 0V1490H428V688H445L811 1118H1158L740 633L1179 0H826L514 456L428 359V0Z" fill="#faf7f2"/>
  <path transform="translate(190.55, 28.2) scale(0.013662, -0.013662)" d="M572 -22Q370 -22 238.5 64.0Q107 150 78 306L357 354Q400 198 581 198Q667 198 716.5 230.5Q766 263 766 313Q766 398 622 428L429 468Q107 534 107 785Q107 946 236.0 1039.0Q365 1132 577 1132Q776 1132 894.0 1051.0Q1012 970 1043 834L777 787Q759 844 711.0 880.5Q663 917 581 917Q507 917 457.0 885.5Q407 854 407 804Q407 762 439.5 732.5Q472 703 551 687L752 647Q1072 582 1072 345Q1072 235 1008.0 152.5Q944 70 831.0 24.0Q718 -22 572 -22Z" fill="#faf7f2"/>
  <path transform="translate(206.22, 28.2) scale(0.013662, -0.013662)" d="M128 0V1118H406L418 901Q463 1023 550.0 1079.0Q637 1135 737 1135Q949 1135 1025 884Q1072 1013 1170.5 1074.0Q1269 1135 1384 1135Q1538 1135 1639.5 1035.5Q1741 936 1741 754V0H1441V697Q1441 791 1389.5 837.5Q1338 884 1263 884Q1178 884 1128.5 830.0Q1079 776 1079 688V0H789V705Q789 787 740.5 835.5Q692 884 615 884Q536 884 482.0 830.5Q428 777 428 676V0Z" fill="#faf7f2"/>
  <path transform="translate(231.75, 28.2) scale(0.013662, -0.013662)" d="M128 0V1118H428V0ZM278 1264Q210 1264 162.0 1309.0Q114 1354 114 1418Q114 1482 162.0 1527.0Q210 1572 278 1572Q346 1572 394.5 1527.0Q443 1482 443 1418Q443 1354 394.5 1309.0Q346 1264 278 1264Z" fill="#faf7f2"/>
  <path transform="translate(239.33, 28.2) scale(0.013662, -0.013662)" d="M683 1118V889H474V327Q474 223 576 223Q593 223 623.5 227.5Q654 232 671 236L714 11Q664 -4 614.5 -10.0Q565 -16 520 -16Q352 -16 263.0 65.5Q174 147 174 301V889H20V1118H174V1384H474V1118Z" fill="#faf7f2"/>
  <path transform="translate(249.57, 28.2) scale(0.013662, -0.013662)" d="M428 647V0H128V1490H422V904Q471 1013 555.0 1072.5Q639 1132 763 1132Q937 1132 1042.5 1020.0Q1148 908 1148 711V0H847V659Q847 763 793.5 822.0Q740 881 645 881Q549 881 488.5 819.5Q428 758 428 647Z" fill="#faf7f2"/>
</svg>
