<?xml version="1.0" encoding="UTF-8" standalone="no"?>
<svg xmlns="http://www.w3.org/2000/svg" xmlns:xlink="http://www.w3.org/1999/xlink" version="1.1" width="800" height="800" viewBox="623 115 800 800"><g fill="none" fill-rule="nonzero" stroke="none" stroke-width="none" stroke-linecap="none" stroke-linejoin="none" stroke-miterlimit="10" font-family="none" font-weight="none" font-size="none"><g id="stage"><g id="layer1-1"><path d="M703,915c-40,0 -80,-40 -80,-80v-640c0,-40 40,-80 80,-80h640c40,0 80,40 80,80v640c0,40 -40,80 -80,80z" id="Path-1728-1" fill="#ff5722"/><path d="M1090.7826,515.02623c0.02522,2.21525 0.11209,4.41569 0.25894,6.5997c3.37491,50.19288 38.43623,91.70301 85.34887,104.69532c9.94162,2.7533 20.44981,4.2259 31.26712,4.22901v108.33682h-376.92129l0.03433,-108.33682c10.82034,-0.00311 21.29702,-1.47654 31.24112,-4.23132c49.0382,-13.58491 85.12475,-58.33098 85.60241,-111.58102v-15.97739l0.03728,-207.64761h419.9573l-88.66948,109.72386l-21.05439,-0.00001h-50.1948c-11.61283,0 -22.83011,1.69358 -33.41833,4.8472c-47.30822,14.0904 -82.12481,57.78528 -83.48908,109.34226z" id="Path-1" fill="#1a1a1a" stroke="#1a1a1a" stroke-width="30" stroke-linecap="square" stroke-linejoin="round"/><path d="M678.39132,291.11292h195.68256v157.5085c-97.19929,0 -178.13936,-67.80769 -195.68256,-157.5085z" id="Path-1731-1" fill="#1a1a1a" stroke="#1a1a1a" stroke-width="30" stroke-linecap="round" stroke-linejoin="round"/></g></g></g></svg>